<?xml version="1.0" encoding="us-ascii" standalone="no"?><svg xmlns="http://www.w3.org/2000/svg" xmlns:xlink="http://www.w3.org/1999/xlink" contentStyleType="text/css" height="1068px" preserveAspectRatio="none" style="width:1040px;height:1068px;background:#FFFFFF;" version="1.1" viewBox="0 0 1040 1068" width="1040px" zoomAndPan="magnify"><defs/><g><text fill="#000000" font-family="sans-serif" font-size="14" font-weight="bold" lengthAdjust="spacing" textLength="247" x="389.75" y="24.5332">Traffic Light System - State Diagram</text><!--cluster SystemRunning--><g id="cluster_SystemRunning"><path d="M19.5,264.6094 L593.5,264.6094 A12.5,12.5 0 0 1 606,277.1094 L606,287.2188 L7,287.2188 L7,277.1094 A12.5,12.5 0 0 1 19.5,264.6094 " fill="#F1F1F1" style="stroke:#F1F1F1;stroke-width:1.0;"/><rect fill="none" height="798" rx="12.5" ry="12.5" style="stroke:#181818;stroke-width:0.5;" width="599" x="7" y="264.6094"/><line style="stroke:#181818;stroke-width:0.5;" x1="7" x2="606" y1="287.2188" y2="287.2188"/><text fill="#000000" font-family="sans-serif" font-size="14" lengthAdjust="spacing" textLength="99" x="257" y="283.1426">SystemRunning</text></g><path d="M240,559.6094 L418,559.6094 A12.5,12.5 0 0 1 430.5,572.1094 L430.5,587.2188 L227.5,587.2188 L227.5,572.1094 A12.5,12.5 0 0 1 240,559.6094 " fill="#F1F1F1" style="stroke:#F1F1F1;stroke-width:1.0;"/><rect fill="none" height="479.3125" rx="12.5" ry="12.5" style="stroke:#181818;stroke-width:0.5;" width="203" x="227.5" y="559.6094"/><line style="stroke:#181818;stroke-width:0.5;" x1="227.5" x2="430.5" y1="587.2188" y2="587.2188"/><text fill="#000000" font-family="sans-serif" font-size="14" lengthAdjust="spacing" textLength="79" x="289.5" y="579.1426">NormalMode</text><g id="SystemRunning.NormalMode.Phase1"><rect fill="#F1F1F1" height="52.7031" rx="12.5" ry="12.5" style="stroke:#181818;stroke-width:0.5;" width="128" x="287.5" y="655.2188"/><line style="stroke:#181818;stroke-width:0.5;" x1="287.5" x2="415.5" y1="682.8281" y2="682.8281"/><text fill="#000000" font-family="sans-serif" font-size="14" lengthAdjust="spacing" textLength="48" x="327.5" y="674.752">Phase1</text><text fill="#000000" font-family="sans-serif" font-size="12" lengthAdjust="spacing" textLength="108" x="292.5" y="700.2852">NS Green / EW Red</text></g><g id="SystemRunning.NormalMode.Phase2"><rect fill="#F1F1F1" height="52.7031" rx="12.5" ry="12.5" style="stroke:#181818;stroke-width:0.5;" width="130" x="239.5" y="762.2188"/><line style="stroke:#181818;stroke-width:0.5;" x1="239.5" x2="369.5" y1="789.8281" y2="789.8281"/><text fill="#000000" font-family="sans-serif" font-size="14" lengthAdjust="spacing" textLength="48" x="280.5" y="781.752">Phase2</text><text fill="#000000" font-family="sans-serif" font-size="12" lengthAdjust="spacing" textLength="110" x="244.5" y="807.2852">NS Yellow / EW Red</text></g><g id="SystemRunning.NormalMode.Phase3"><rect fill="#F1F1F1" height="52.7031" rx="12.5" ry="12.5" style="stroke:#181818;stroke-width:0.5;" width="128" x="241.5" y="869.2188"/><line style="stroke:#181818;stroke-width:0.5;" x1="241.5" x2="369.5" y1="896.8281" y2="896.8281"/><text fill="#000000" font-family="sans-serif" font-size="14" lengthAdjust="spacing" textLength="48" x="281.5" y="888.752">Phase3</text><text fill="#000000" font-family="sans-serif" font-size="12" lengthAdjust="spacing" textLength="108" x="246.5" y="914.2852">NS Red / EW Green</text></g><g id="SystemRunning.NormalMode.Phase4"><rect fill="#F1F1F1" height="52.7031" rx="12.5" ry="12.5" style="stroke:#181818;stroke-width:0.5;" width="130" x="286.5" y="976.2188"/><line style="stroke:#181818;stroke-width:0.5;" x1="286.5" x2="416.5" y1="1003.8281" y2="1003.8281"/><text fill="#000000" font-family="sans-serif" font-size="14" lengthAdjust="spacing" textLength="48" x="327.5" y="995.752">Phase4</text><text fill="#000000" font-family="sans-serif" font-size="12" lengthAdjust="spacing" textLength="110" x="291.5" y="1021.2852">NS Red / EW Yellow</text></g><ellipse cx="351.5" cy="608.2188" fill="#222222" rx="10" ry="10" style="stroke:#222222;stroke-width:1.0;"/><!--link *start*NormalMode to Phase1--><g id="link_*start*NormalMode_Phase1"><path d="M351.5,618.2788 C351.5,627.5188 351.5,636.2987 351.5,649.1488 " fill="none" id="*start*NormalMode-to-Phase1" style="stroke:#181818;stroke-width:1.0;"/><polygon fill="#181818" points="351.5,655.1488,355.5,646.1488,351.5,650.1488,347.5,646.1488,351.5,655.1488" style="stroke:#181818;stroke-width:1.0;"/></g><!--link Phase1 to Phase2--><g id="link_Phase1_Phase2"><path d="M340,708.4088 C332.72,724.6788 325.7809,740.1721 318.4909,756.4621 " fill="none" id="Phase1-to-Phase2" style="stroke:#181818;stroke-width:1.0;"/><polygon fill="#181818" points="316.04,761.9388,323.3674,755.3577,318.0824,757.3749,316.0652,752.0899,316.04,761.9388" style="stroke:#181818;stroke-width:1.0;"/><text fill="#000000" font-family="sans-serif" font-size="13" lengthAdjust="spacing" textLength="39" x="332.5" y="740.7139">cycle()</text></g><!--link Phase2 to Phase3--><g id="link_Phase2_Phase3"><path d="M304.74,815.4088 C304.9,831.6788 305.0448,846.649 305.1948,862.939 " fill="none" id="Phase2-to-Phase3" style="stroke:#181818;stroke-width:1.0;"/><polygon fill="#181818" points="305.25,868.9388,309.167,859.9023,305.204,863.939,301.1673,859.976,305.25,868.9388" style="stroke:#181818;stroke-width:1.0;"/><text fill="#000000" font-family="sans-serif" font-size="13" lengthAdjust="spacing" textLength="39" x="306.5" y="847.7139">cycle()</text></g><!--link Phase3 to Phase4--><g id="link_Phase3_Phase4"><path d="M316.75,922.4088 C323.88,938.6788 330.6642,954.1522 337.7942,970.4422 " fill="none" id="Phase3-to-Phase4" style="stroke:#181818;stroke-width:1.0;"/><polygon fill="#181818" points="340.2,975.9388,340.2557,966.09,338.1952,971.3583,332.9269,969.2978,340.2,975.9388" style="stroke:#181818;stroke-width:1.0;"/><text fill="#000000" font-family="sans-serif" font-size="13" lengthAdjust="spacing" textLength="39" x="332.5" y="954.7139">cycle()</text></g><!--link Phase4 to Phase1--><g id="link_Phase4_Phase1"><path d="M368.91,975.9288 C371.96,970.2987 374.72,964.2288 376.5,958.2188 C381.06,942.8588 378.06,938.2388 378.5,922.2188 C383.57,739.4188 384.25,752.3388 376.5,726.2188 C374.72,720.2088 374.818,719.4143 371.768,713.7843 " fill="none" id="Phase4-to-Phase1" style="stroke:#181818;stroke-width:1.0;"/><polygon fill="#181818" points="368.91,708.5088,369.6799,718.3275,371.2917,712.9051,376.7141,714.5168,368.91,708.5088" style="stroke:#181818;stroke-width:1.0;"/><text fill="#000000" font-family="sans-serif" font-size="13" lengthAdjust="spacing" textLength="39" x="381.5" y="847.7139">cycle()</text></g><path d="M303,308.6094 L549,308.6094 A12.5,12.5 0 0 1 561.5,321.1094 L561.5,336.2188 L290.5,336.2188 L290.5,321.1094 A12.5,12.5 0 0 1 303,308.6094 " fill="#F1F1F1" style="stroke:#F1F1F1;stroke-width:1.0;"/><rect fill="none" height="173.4063" rx="12.5" ry="12.5" style="stroke:#181818;stroke-width:0.5;" width="271" x="290.5" y="308.6094"/><line style="stroke:#181818;stroke-width:0.5;" x1="290.5" x2="561.5" y1="336.2188" y2="336.2188"/><text fill="#000000" font-family="sans-serif" font-size="14" lengthAdjust="spacing" textLength="106" x="373" y="328.1426">EmergencyMode</text><g id="SystemRunning.EmergencyMode.AllRed"><rect fill="#F1F1F1" height="67.7969" rx="12.5" ry="12.5" style="stroke:#181818;stroke-width:0.5;" width="121" x="302.5" y="404.2188"/><line style="stroke:#181818;stroke-width:0.5;" x1="302.5" x2="423.5" y1="431.8281" y2="431.8281"/><text fill="#000000" font-family="sans-serif" font-size="14" lengthAdjust="spacing" textLength="41" x="342.5" y="423.752">AllRed</text><text fill="#000000" font-family="sans-serif" font-size="12" lengthAdjust="spacing" textLength="79" x="307.5" y="449.2852">All Lights RED</text><text fill="#000000" font-family="sans-serif" font-size="12" lengthAdjust="spacing" textLength="101" x="307.5" y="464.3789">Cycling BLOCKED</text></g><ellipse cx="363" cy="357.2188" fill="#222222" rx="10" ry="10" style="stroke:#222222;stroke-width:1.0;"/><!--link *start*EmergencyMode to AllRed--><g id="link_*start*EmergencyMode_AllRed"><path d="M363,367.2788 C363,376.2788 363,384.6188 363,397.9888 " fill="none" id="*start*EmergencyMode-to-AllRed" style="stroke:#181818;stroke-width:1.0;"/><polygon fill="#181818" points="363,403.9888,367,394.9888,363,398.9888,359,394.9888,363,403.9888" style="stroke:#181818;stroke-width:1.0;"/></g><!--link AllRed to AllRed--><g id="link_AllRed_AllRed"><path d="M423.56,429.0788 C434.14,430.2988 441.5,433.3388 441.5,438.2188 C441.5,443.0988 440.1005,445.4514 429.5205,446.6714 " fill="none" id="AllRed-to-AllRed" style="stroke:#181818;stroke-width:1.0;"/><polygon fill="#181818" points="423.56,447.3588,432.959,450.3014,428.5271,446.786,432.0425,442.3541,423.56,447.3588" style="stroke:#181818;stroke-width:1.0;"/><text fill="#000000" font-family="sans-serif" font-size="13" lengthAdjust="spacing" textLength="99" x="447.5" y="443.7139">cycle() [Warning]</text></g><ellipse cx="66" cy="395.1094" fill="#222222" rx="10" ry="10" style="stroke:#222222;stroke-width:1.0;"/><g id="SystemOff"><rect fill="#F1F1F1" height="50" rx="12.5" ry="12.5" style="stroke:#181818;stroke-width:0.5;" width="85" x="555.5" y="142.6094"/><line style="stroke:#181818;stroke-width:0.5;" x1="555.5" x2="640.5" y1="170.2188" y2="170.2188"/><text fill="#000000" font-family="sans-serif" font-size="14" lengthAdjust="spacing" textLength="65" x="565.5" y="162.1426">SystemOff</text></g><ellipse cx="598" cy="54.6094" fill="#222222" rx="10" ry="10" style="stroke:#222222;stroke-width:1.0;"/><ellipse cx="641" cy="799.1094" fill="none" rx="11" ry="11" style="stroke:#222222;stroke-width:1.0;"/><ellipse cx="641" cy="799.1094" fill="#222222" rx="6" ry="6" style="stroke:#222222;stroke-width:1.0;"/><g id="elem_GMN29"><path d="M633,349.1094 L633,440.8672 L769,440.8672 L769,359.1094 L759,349.1094 L633,349.1094 " fill="#FEFFDD" style="stroke:#181818;stroke-width:0.5;"/><path d="M759,349.1094 L759,359.1094 L769,359.1094 L759,349.1094 " fill="#FEFFDD" style="stroke:#181818;stroke-width:1.0;"/><text fill="#000000" font-family="sans-serif" font-size="13" lengthAdjust="spacing" textLength="115" x="639" y="367.6045">User Menu Actions:</text><text fill="#000000" font-family="sans-serif" font-size="13" lengthAdjust="spacing" textLength="48" x="639" y="383.9561">1. Cycle</text><text fill="#000000" font-family="sans-serif" font-size="13" lengthAdjust="spacing" textLength="105" x="639" y="400.3076">2. Set Emergency</text><text fill="#000000" font-family="sans-serif" font-size="13" lengthAdjust="spacing" textLength="89" x="639" y="416.6592">3. Show Status</text><text fill="#000000" font-family="sans-serif" font-size="13" lengthAdjust="spacing" textLength="38" x="639" y="433.0107">4. Exit</text></g><g id="elem_GMN32"><path d="M804.5,357.6094 L804.5,433.0156 L1033.5,433.0156 L1033.5,367.6094 L1023.5,357.6094 L804.5,357.6094 " fill="#FEFFDD" style="stroke:#181818;stroke-width:0.5;"/><path d="M1023.5,357.6094 L1023.5,367.6094 L1033.5,367.6094 L1023.5,357.6094 " fill="#FEFFDD" style="stroke:#181818;stroke-width:1.0;"/><text fill="#000000" font-family="sans-serif" font-size="13" lengthAdjust="spacing" textLength="106" x="810.5" y="376.1045">Emergency Mode:</text><text fill="#000000" font-family="sans-serif" font-size="13" lengthAdjust="spacing" textLength="143" x="810.5" y="392.4561">- All lights forced to RED</text><text fill="#000000" font-family="sans-serif" font-size="13" lengthAdjust="spacing" textLength="114" x="810.5" y="408.8076">- Cycling is blocked</text><text fill="#000000" font-family="sans-serif" font-size="13" lengthAdjust="spacing" textLength="208" x="810.5" y="425.1592">- Exits to Phase 1 when deactivated</text></g><g id="elem_GMN35"><path d="M687.5,777.6094 L687.5,820.3125 L1000.5,820.3125 L1000.5,787.6094 L990.5,777.6094 L687.5,777.6094 " fill="#FEFFDD" style="stroke:#181818;stroke-width:0.5;"/><path d="M990.5,777.6094 L990.5,787.6094 L1000.5,787.6094 L990.5,777.6094 " fill="#FEFFDD" style="stroke:#181818;stroke-width:1.0;"/><text fill="#000000" font-family="sans-serif" font-size="13" lengthAdjust="spacing" textLength="82" x="693.5" y="796.1045">Normal Cycle:</text><text fill="#000000" font-family="sans-serif" font-size="13" lengthAdjust="spacing" textLength="292" x="693.5" y="812.4561">Phase1 -&gt; Phase2 -&gt; Phase3 -&gt; Phase4 -&gt; repeat</text></g><!--link *start* to SystemOff--><g id="link_*start*_SystemOff"><path d="M598,64.6894 C598,81.4694 598,111.8294 598,136.2594 " fill="none" id="*start*-to-SystemOff" style="stroke:#181818;stroke-width:1.0;"/><polygon fill="#181818" points="598,142.2594,602,133.2594,598,137.2594,594,133.2594,598,142.2594" style="stroke:#181818;stroke-width:1.0;"/><text fill="#000000" font-family="sans-serif" font-size="13" lengthAdjust="spacing" textLength="94" x="599" y="109.1045">System Created</text></g><!--link SystemOff to SystemRunning--><g id="link_SystemOff_SystemRunning"><path d="M598,192.7394 C598,207.0569 598,226.5231 598,247.7369 C598,253.0403 598,252.453 598,257.9217 " fill="none" id="SystemOff-to-SystemRunning" style="stroke:#181818;stroke-width:1.0;"/><polygon fill="#181818" points="598,263.9217,602,254.9217,598,258.9217,594,254.9217,598,263.9217" style="stroke:#181818;stroke-width:1.0;"/><text fill="#000000" font-family="sans-serif" font-size="13" lengthAdjust="spacing" textLength="34" x="599" y="237.1045">start()</text></g><!--link SystemRunning to *end*--><g id="link_SystemRunning_*end*"><path d="M606.1082,471.8831 C606.1686,472.4483 606.2293,473.0157 606.2902,473.5853 C606.4121,474.7244 606.5348,475.8722 606.6585,477.0283 C607.6478,486.2772 608.6943,496.0617 609.7829,506.2399 C611.9602,526.5962 614.3059,548.5275 616.6988,570.8994 C626.27,660.3869 635.9569,750.9584 639.2719,781.9534 " fill="none" id="SystemRunning-to-*end*" style="stroke:#181818;stroke-width:1.0;"/><polygon fill="#181818" points="639.91,787.9194,642.9302,778.545,639.3783,782.9477,634.9756,779.3958,639.91,787.9194" style="stroke:#181818;stroke-width:1.0;"/><text fill="#000000" font-family="sans-serif" font-size="13" lengthAdjust="spacing" textLength="100" x="612" y="526.1045">User selects Exit</text></g><!--link *start*SystemRunning to NormalMode--><g id="link_*start*SystemRunning_NormalMode"><path d="M66.25,405.3794 C67.19,427.8594 71.68,486.5994 93,529.6094 C125.95,596.0494 175.3355,654.7087 223.1355,702.9187 " fill="none" id="*start*SystemRunning-to-NormalMode" style="stroke:#181818;stroke-width:1.0;"/><polygon fill="#181818" points="227.36,707.1794,223.8638,697.972,223.8396,703.6288,218.1828,703.6046,227.36,707.1794" style="stroke:#181818;stroke-width:1.0;"/><text fill="#000000" font-family="sans-serif" font-size="13" lengthAdjust="spacing" textLength="125" x="94" y="526.1045">Intersection initialized</text></g><!--link NormalMode to EmergencyMode--><g id="link_NormalMode_EmergencyMode"><path d="M386.61,559.3494 C393.26,531.8194 398.2518,511.0918 403.9018,487.6918 " fill="none" id="NormalMode-to-EmergencyMode" style="stroke:#181818;stroke-width:1.0;"/><polygon fill="#181818" points="405.31,481.8594,399.3094,489.6691,404.1365,486.7197,407.0859,491.5468,405.31,481.8594" style="stroke:#181818;stroke-width:1.0;"/><text fill="#000000" font-family="sans-serif" font-size="13" lengthAdjust="spacing" textLength="146" x="399" y="526.1045">setEmergencyMode(true)</text></g><!--link EmergencyMode to NormalMode--><g id="link_EmergencyMode_NormalMode"><path d="M290.44,452.8894 C267.83,468.5294 247.4,487.9094 234,511.6094 C212.98,548.7894 213.2118,585.5928 225.6918,626.3128 " fill="none" id="EmergencyMode-to-NormalMode" style="stroke:#181818;stroke-width:1.0;"/><polygon fill="#181818" points="227.45,632.0494,228.6371,622.2723,225.9849,627.2689,220.9883,624.6166,227.45,632.0494" style="stroke:#181818;stroke-width:1.0;"/><text fill="#000000" font-family="sans-serif" font-size="13" lengthAdjust="spacing" textLength="151" x="235" y="526.1045">setEmergencyMode(false)</text></g><!--link SystemRunning to GMN29--><g id="link_SystemRunning_GMN29"><path d="M606.075,395.1094 C606.1198,395.1094 606.1647,395.1094 606.2096,395.1094 C606.2994,395.1094 606.3891,395.1094 606.4789,395.1094 C606.6584,395.1094 606.838,395.1094 607.0175,395.1094 C609.89,395.1094 612.7625,395.1094 615.635,395.1094 C621.38,395.1094 627.125,395.1094 632.87,395.1094 " fill="none" id="SystemRunning-GMN29" style="stroke:#181818;stroke-width:1.0;stroke-dasharray:7.0,7.0;"/></g><!--link EmergencyMode to GMN32--><g id="link_EmergencyMode_GMN32"><path d="M480.05,308.2994 C506.35,274.2794 541.25,239.0194 582.5,220.6094 C658.39,186.7294 694,185.8694 769.5,220.6094 C830.39,248.6194 875.74,315.0194 899.73,357.3594 " fill="none" id="EmergencyMode-GMN32" style="stroke:#181818;stroke-width:1.0;stroke-dasharray:7.0,7.0;"/></g><!--link NormalMode to GMN35--><g id="link_NormalMode_GMN35"><path d="M430.61,622.9694 C490.2,543.9294 569.86,477.1394 652.5,520.6094 C759.22,576.7394 818,722.2194 837.04,777.4294 " fill="none" id="NormalMode-GMN35" style="stroke:#181818;stroke-width:1.0;stroke-dasharray:7.0,7.0;"/></g><!--SRC=[VPHBRnen483l_XLpX4fBnEF4eL9AK1GrZmeIHLMKWxFCWXLZLxPfIgFyzupjnMON20UqdldcwHaxuIJ2lU5L9Kgu5ikLW_dMEbn30NF77SA5u4l3rupPS8pQkwfgd6SRfOHQClRqxHcAudl6OBnpE3581WkMLHcixGachyPrkgmfzwHtFOO7YmOiIYoTXUa_uTYnHE2T0VsYvbQRDPStUe5xmkaQpH9LkKtoyBVBFzjGp2lbq5YAABG2eOGJN8h_L4eosyEzTSEvBmfTGzHnPeFTODb43q8VM5PSsjhqQ8brvLdrQyKjzidLxHmk3QA2CvW-mgnElmKE8lWRfTHlNvB3I98sOi7tCN3K0gFlHAQFNUjZmeVwkf24-5JBRIcnqsqoWymCJp73p8nECQEzT5hCH_i2cjVOleDpANtvO_yHjyp2R7fnYffG93_4Fwxl9Z_ti8DMHOiahXraJSuQdXwvyPlnNEV_mPZI5DI4dTTLQv4XBjeDgWsSXy6tOnBsUo4vlp237ipHvS99D2JHYiR6FnmRIu9HBwuegWNuQEsOxILCP_027x08BPEnPPKs9HNbTDsy8dLAM7YHkdmDpIX2KEkvS7dGXxSLpVq2ELNoDpn2fp9gl1Nn42lsoUmcC0rW7hCyJFHby0yzTJd69m00]--></g></svg>